# xmcd
#
# Track frame offsets:
#	150
#	12588
#	25890
#	36310
#	47792
#	58687
#	80753
#	104613
#	129755
#	142160
#	154778
#	171565
#
# Disc length: 2486 seconds
#
# Revision: 2
# Processed by: cddbd v1.5.1PL2 Copyright (c) Steve Scherf et al.
# Submitted via: dBpowerAMP V4.0
#
DISCID=ac09b40c
DTITLE=Various Artist - Raw Blues
DYEAR=1900
DGENRE=blues
TTITLE0=Crawling King snake - John Lee Hooker
TTITLE1=Everyday I Get the Blues - Memphis Slim
TTITLE2=Sitting on the Top of the World - Ray Charles
TTITLE3=Boogie in the Dark - Jimmy Reed
TTITLE4=My babe - Lightening Slim
TTITLE5=Soon forgotten - Muddy Waters
TTITLE6=Rock me woman - Memphis Slim
TTITLE7=I Don't Mean to Hurt Your Feelings - Howlin' Wolf
TTITLE8=My Baby's Gone - Lightnin' Hopkins
TTITLE9=Baby Please Don't Go - Muddy Waters
TTITLE10=When My First Wife Left Me - John Lee Hooker
TTITLE11=Baby What's Wrong With You - Mississippi John Hurt
EXTD=
EXTT0=
EXTT1=
EXTT2=
EXTT3=
EXTT4=
EXTT5=
EXTT6=
EXTT7=
EXTT8=
EXTT9=
EXTT10=
EXTT11=
PLAYORDER=
